<?xml version="1.0" standalone="no"?>
<!DOCTYPE svg PUBLIC "-//W3C//DTD SVG 1.1//EN" "http://www.w3.org/Graphics/SVG/1.1/DTD/svg11.dtd" >
<!--
2013-9-30: Created.
-->
<svg>
<metadata>
Created by iconfont
</metadata>
<defs>

<font id="iconfont" horiz-adv-x="1024" >
  <font-face
    font-family="iconfont"
    font-weight="500"
    font-stretch="normal"
    units-per-em="1024"
    ascent="896"
    descent="-128"
  />
    <missing-glyph />
    
    <glyph glyph-name="duojicaidan" unicode="&#58888;" d="M81.5 651.76c0-13.06 5.39-26.07 14.61-35.3 9.29-9.29 22.3-14.68 35.43-14.68a50.638 50.638 0 0 1 35.3 14.61c9.29 9.29 14.68 22.3 14.68 35.36a50.626 50.626 0 0 1-14.55 35.43 50.6 50.6 0 0 1-35.42 14.61 50.649 50.649 0 0 1-35.43-14.61 51.011 51.011 0 0 1-14.62-35.42m0-266.73c0-13.07 5.33-26.2 14.61-35.43 9.29-9.29 22.23-14.61 35.43-14.61a50.736 50.736 0 0 1 35.36 14.61 50.545 50.545 0 0 1 14.61 35.43 50.736 50.736 0 0 1-14.61 35.36A50.484 50.484 0 0 1 131.54 435c-13.27-0.05-25.98-5.3-35.43-14.61a50.552 50.552 0 0 1-14.61-35.36m0-266.79c0-13.06 5.33-26.13 14.61-35.42 9.29-9.29 22.23-14.61 35.43-14.61a50.736 50.736 0 0 1 35.36 14.61 50.539 50.539 0 0 1 14.61 35.42 50.753 50.753 0 0 1-14.61 35.43 50.527 50.527 0 0 1-35.36 14.61c-13.27-0.05-25.98-5.3-35.43-14.61a50.92 50.92 0 0 1-14.61-35.43m867 533.52c0-27.62-21.55-49.98-48.12-49.98H329.71c-26.63 0-48.12 22.29-48.12 49.98-0.06 27.75 21.49 50.04 48.12 50.04h570.67c26.63 0 48.12-22.36 48.12-50.04m-48.12-316.77H329.71c-26.63 0-48.12 22.35-48.12 50.04 0 27.62 21.49 49.98 48.12 49.98h570.67c26.63 0.12 48.12-22.29 48.12-49.98 0-27.56-21.55-50.04-48.12-50.04z m48.12-216.68c0-27.68-21.55-50.1-48.12-50.1H329.71c-26.63 0-48.12 22.42-48.12 50.1 0 27.56 21.49 49.98 48.12 49.98h570.67c26.63 0.05 48.12-22.43 48.12-49.98"  horiz-adv-x="1024" />

    
    <glyph glyph-name="daohangzhankai" unicode="&#58889;" d="M78.04 766.16c0 27.5 22.5 50 50 50H895c27.5 0 50-22.5 50-50v-13.13c0-27.5-22.5-50-50-50H128.04c-27.5 0-50 22.5-50 50v13.13zM945 0.02c0-27.5-22.5-50-50-50H128.04c-27.5 0-50 22.5-50 50v13.13c0 27.5 22.5 50 50 50H895c27.5 0 50-22.5 50-50v-13.13zM601.66 542.16c27.5 0 50-22.5 50-50v-13.13c0-27.5-22.5-50-50-50H128c-27.5 0-50 22.5-50 50v13.13c0 27.5 22.5 50 50 50h473.66zM651.66 265.02c0-27.5-22.5-50-50-50H128c-27.5 0-50 22.5-50 50v13.13c0 27.5 22.5 50 50 50h473.66c27.5 0 50-22.5 50-50v-13.13zM750.06 523.44c0 27.5 16.17 34.35 35.92 15.22l124.1-120.14c19.76-19.13 19.91-50.59 0.34-69.91L785.64 225.39c-19.57-19.32-35.58-12.63-35.58 14.87V523.44z"  horiz-adv-x="1024" />

    
    <glyph glyph-name="daohangzhedie" unicode="&#58890;" d="M944.96 767.16c0 27.5-22.5 50-50 50H129c-27.5 0-50-22.5-50-50v-13.13c0-27.5 22.5-50 50-50h765.96c27.5 0 50 22.5 50 50v13.13zM79 1.02c0-27.5 22.5-50 50-50h765.96c27.5 0 50 22.5 50 50v13.13c0 27.5-22.5 50-50 50H129c-27.5 0-50-22.5-50-50v-13.13zM422 543.16c-27.5 0-50-22.5-50-50v-13.13c0-27.5 22.5-50 50-50h473c27.5 0 50 22.5 50 50v13.13c0 27.5-22.5 50-50 50H422zM372 266.02c0-27.5 22.5-50 50-50h473c27.5 0 50 22.5 50 50v13.13c0 27.5-22.5 50-50 50H422c-27.5 0-50-22.5-50-50v-13.13zM273.72 524.44c0 27.5-16.16 34.34-35.9 15.2L113.9 419.54c-19.75-19.14-19.9-50.62-0.35-69.95l124.6-123.18c19.56-19.33 35.56-12.65 35.56 14.85V524.44z"  horiz-adv-x="1024" />

    
    <glyph glyph-name="xiangshangjiantou" unicode="&#58891;" d="M480.19 611.59l-67.16-67.16L92.17 223.57c-19.45-19.45-21.04-49.67-3.55-67.16s47.72-15.9 67.16 3.55l320.86 320.86c19.45 19.45 51.27 19.45 70.71 0l320.86-320.86c19.45-19.45 49.67-21.04 67.16-3.55s15.9 47.72-3.55 67.16L610.97 544.43l-67.16 67.16c-17.49 17.49-46.12 17.5-63.62 0z"  horiz-adv-x="1024" />

    
    <glyph glyph-name="xiangzuojiantou" unicode="&#58892;" d="M307.83 415.73l67.16 67.16L695.85 803.76c19.45 19.45 49.67 21.04 67.16 3.55s15.9-47.72-3.55-67.16L438.6 419.28c-19.45-19.45-19.45-51.27 0-70.71L759.47 27.7c19.45-19.45 21.04-49.67 3.55-67.16s-47.72-15.9-67.16 3.55L374.99 284.96l-67.16 67.16c-17.49 17.49-17.5 46.12 0 63.61z"  horiz-adv-x="1024" />

    
    <glyph glyph-name="xiangyoujiantou" unicode="&#58893;" d="M755.44 415.65l-67.16 67.16L367.41 803.68c-19.45 19.45-49.67 21.04-67.16 3.55s-15.9-47.72 3.55-67.16L624.66 419.2c19.45-19.45 19.45-51.27 0-70.71L303.8 27.63c-19.45-19.45-21.04-49.67-3.55-67.16s47.72-15.9 67.16 3.55l320.86 320.86 67.16 67.16c17.49 17.49 17.5 46.12 0.01 63.61z"  horiz-adv-x="1024" />

    
    <glyph glyph-name="guanbianniu" unicode="&#58894;" d="M917.17 725.53c19.45 19.45 21.04 49.67 3.54 67.18s-47.73 15.91-67.18-3.54L547.36 482.99c-19.45-19.45-51.27-19.45-70.71 0L170.47 789.17c-19.45 19.45-49.67 21.04-67.18 3.54s-15.91-47.73 3.54-67.18l306.18-306.18c19.45-19.45 19.45-51.27 0-70.71L106.83 42.47c-19.45-19.45-21.04-49.67-3.54-67.18s47.73-15.91 67.18 3.54l306.18 306.18c19.45 19.45 51.27 19.45 70.71 0l306.18-306.18c19.45-19.45 49.67-21.04 67.18-3.54s15.91 47.73-3.54 67.18L610.99 348.64c-19.45 19.45-19.45 51.27 0 70.71l306.18 306.18z"  horiz-adv-x="1024" />

    
    <glyph glyph-name="shujushangchuan" unicode="&#58895;" d="M482.27 224.97c0 11.86 12.09 21.55 26.86 21.55 14.79 0 26.88-9.69 26.88-21.55v-215.42c0-11.86-12.09-21.55-26.88-21.55-14.82 0.04-26.81 9.67-26.86 21.55V224.97zM490.34 238.44c10.48 10.41 27.4 10.41 37.88 0 10.41-10.48 10.41-27.4 0-37.88L425.66 97.99c-10.48-10.42-27.41-10.42-37.9 0-10.42 10.48-10.42 27.41 0 37.9l102.57 102.57v-0.02zM489.91 200.57c-10.42 10.48-10.42 27.41 0 37.89 10.49 10.42 27.42 10.42 37.9 0l102.56-102.59c10.41-10.48 10.41-27.4 0-37.88-10.48-10.41-27.4-10.41-37.88 0l-102.58 102.6v-0.02zM779.32 545.39C756.51 674.25 645.94 772 512.99 772c-132.95 0.02-243.5-97.75-266.31-226.63C151.13 522.43 80 434.94 80 330.51c0-121.91 96.94-220.72 216.48-220.75 14.66 0.4 26.34 12.64 26.34 27.59s-11.68 27.19-26.34 27.59c-43.08-0.12-84.42 17.35-114.8 48.49-30.55 30.98-47.68 73.14-47.56 117.07-0.06 37.62 12.51 74.12 35.6 103.45 22.68 28.82 54.12 49.12 89.37 57.7l34.54 8.29 6.31 35.64c13.7 76.59 65.92 140.19 137.46 167.41a212.032 212.032 0 0 0 75.6 13.82c51.09 0.07 100.53-18.35 139.55-51.97 38.48-33.08 64.47-78.78 73.51-129.27l6.3-35.64 34.56-8.29c53.46-13.02 96.89-52.62 115.53-105.34 6.28-17.91 9.48-36.79 9.46-55.8 0.11-43.94-17.02-86.09-47.58-117.07-30.38-31.15-71.72-48.61-114.81-48.49-14.66-0.4-26.34-12.64-26.34-27.59s11.68-27.19 26.34-27.59c119.57 0 216.49 98.83 216.49 220.76-0.01 104.42-71.14 191.91-166.69 214.87z"  horiz-adv-x="1024" />

    
    <glyph glyph-name="xitongjiankong" unicode="&#58896;" d="M512.75 765.5c51.67 0 101.72-10.11 148.75-30.06 45.38-19.25 86.14-46.81 121.14-81.92 34.95-35.06 62.38-75.86 81.54-121.26 19.79-46.9 29.82-96.7 29.82-148.01 0-51.2-10.11-100.96-30.05-147.89-19.28-45.38-46.86-86.2-81.99-121.32-35.13-35.13-75.95-62.71-121.32-81.99C613.71 13.11 563.96 3 512.75 3c-51.31 0-101.11 10.03-148.01 29.82-45.4 19.15-86.2 46.59-121.26 81.54-35.11 35-62.67 75.76-81.92 121.14-19.95 47.03-30.06 97.08-30.06 148.75 0 51.78 10.04 101.86 29.83 148.87 19.12 45.41 46.53 86.15 81.47 121.08s75.67 62.34 121.08 81.47c47.01 19.79 97.1 29.83 148.87 29.83m0 52C272.49 817.5 79.5 624.51 79.5 384.25S274.46-49 512.75-49 946 145.96 946 384.25 753.01 817.5 512.75 817.5zM599.4 122.33h-1.97c-13.78 1.97-23.63 11.82-27.57 23.63l-64.99 342.66-35.45-124.07c-3.94-11.82-15.75-19.69-27.57-19.69H406.4l-35.45-88.62c-3.94-11.81-15.76-19.69-27.57-19.69-11.82 0-23.63 7.88-27.57 19.69l-43.33 129.98-13.78-27.57c-3.94-9.85-15.75-17.72-27.57-17.72h-33.48c-15.76 0-29.54 13.79-29.54 29.54 0 15.76 13.78 33.48 29.54 33.48h15.75l37.42 78.77c5.91 11.81 15.76 17.72 29.54 17.72 11.81 0 21.66-7.88 25.6-19.7l39.39-122.09 11.82 29.54c3.94 11.82 15.75 19.69 27.57 19.69h33.48l64.99 220.57c3.94 13.79 15.76 21.66 29.54 21.66 13.79 0 25.6-9.85 27.57-23.63l68.92-360.39 88.62 250.11c3.94 11.82 15.76 19.69 27.57 19.69 11.82 0 23.63-7.87 27.57-19.69l39.39-112.25h35.45c15.75 0 29.54-11.82 29.54-29.54 0-15.75-11.82-29.54-29.54-29.54h-57.11c-13.79 0-23.63 7.87-27.57 19.69l-19.69 53.17-96.5-275.71c-3.94-11.81-15.75-19.69-27.57-19.69z m0 0"  horiz-adv-x="1024" />

    
    <glyph glyph-name="youjianguanli" unicode="&#58897;" d="M810.98 730.32H220c-76.24 0-138.15-56.18-138.15-125.36v-438.75c0-69.18 61.92-125.36 138.15-125.36h590.98c76.24 0 138.15 56.18 138.15 125.36V604.96c-0.51 69.18-61.91 125.36-138.15 125.36zM139.73 218.19v334.8l184.74-167.18-184.74-167.62zM596.1 359.7c-21.34-19.35-50.1-30.16-80.86-30.16-30.76 0-59.03 10.81-80.85 30.16L143.7 623.92c11.41 33.75 44.65 55.82 85.32 55.82h572.94c40.68 0 73.91-21.61 85.32-55.82L596.1 359.7z m-237.7-9.36l43.71-36.07c35-29.81 71.95-38.83 113.63-38.83 41.66 0 77.7 12.23 109.91 38.83l42.27 36.07L888.27 150.4c-10.41-35.56-44.15-58.52-86.31-58.52H229.02c-42.16 0-75.9 22.96-86.31 58.07L358.4 350.34z m532.84 202.65v-334.8L706.52 385.81l184.72 167.18z m0 0"  horiz-adv-x="1024" />

    
    <glyph glyph-name="xiaoping" unicode="&#58898;" d="M93.02 729.05c-20.03 20.21-20.03 52.78 0 72.99a51.437 51.437 0 0 0 36.54 15.05c13.21 0 26.42-4.95 36.54-15.05L320.94 647.4l58.22 58.14c25.8 25.98 70.4 7.42 70.4-29.28v-189.08c0-22.68-18.58-41.24-41.29-41.24H218.95c-36.75 0-55.32 44.54-29.31 70.52l58.22 57.94L93.02 729.05z m521.75-283.21c-10.95 0-21.45 4.35-29.2 12.08a41.17 41.17 0 0 0-12.09 29.16V676.16c0 36.7 44.39 55.26 70.4 29.28l58.22-58.15L856.93 801.94c14.76 14.8 37 19.25 56.32 11.25s31.89-26.85 31.84-47.74c0-13.2-4.96-26.39-15.07-36.49L775.18 574.3l58.22-57.94c25.81-25.98 7.43-70.52-29.31-70.52H614.77z m29.17-382.99c-26.01-25.98-70.4-7.63-70.4 29.07V281c0 22.89 18.38 41.24 41.29 41.24h189.31c36.75 0 55.12-44.33 29.31-70.31l-58.22-58.14 154.83-154.64c20.03-20.2 20.03-52.78 0-72.99-10.12-9.9-23.33-15.05-36.54-15.05s-26.42 5.15-36.54 15.05L702.16 120.79l-58.22-57.94zM78.01 2.58c0 13.2 4.96 26.39 15.07 36.5l154.83 154.64-58.22 58.14c-26.02 25.98-7.43 70.31 29.31 70.31h189.31c10.95 0 21.45-4.34 29.2-12.08a41.17 41.17 0 0 0 12.09-29.16v-189.08c0-36.7-44.59-55.05-70.4-29.07L321 120.72 166.16-33.92c-20.23-20-52.85-20-73.08 0a51.322 51.322 0 0 0-15.07 36.5z m0 0"  horiz-adv-x="1024" />

    
    <glyph glyph-name="renyuanguanli" unicode="&#58899;" d="M444.19 816.97c-113.92 0-212.42-98.69-212.42-218.99 0-67.86 30.73-129.46 83.13-172.74l15.37-9.16-15.34-6.26C173.12 354.48 78 218.8 78 64.77c-0.26-27.9 10.69-54.73 30.39-74.46 19.7-19.73 46.5-30.69 74.36-30.43h280.16c9.14 0 24.51 9.13 24.51 27.9 0 21.65-15.37 27.88-24.51 27.88H182.27a48.365 48.365 0 0 0-34.87 14.19 48.483 48.483 0 0 0-14.15 34.92c0 163.62 126.42 298.87 286.41 314.26h33.68c36.95 2.9 89.33 12.52 116.76 37.06l12.53 9.16c52.4 43.29 83.11 104.88 83.11 172.74-0.01 120.29-98.59 218.98-221.55 218.98z m5.76-382.6c-89.43 0-163.37 74.09-163.37 163.61 0 89.53 73.96 163.64 163.37 163.64 89.41 0 163.43-74.11 163.43-163.64 0-89.53-74.02-163.61-163.43-163.61zM779.88 339.2l34.43-19.2c-0.25-1.27-0.44-2.55-0.58-3.84-0.09-0.42-0.19-0.89-0.28-1.29-1.14-5.33-2.86-13.39-2.86-21.99 0-48.69 34.79-87.75 81.39-94.16 1.34-9.64 3.55-21.59 6.72-32.57-0.57-8.02-2.02-16.52-3.23-22.47-47.15-5.97-82.49-45.26-82.49-94.33 0-11.06 2.05-21.16 3.59-27.2l-35.69-19.92c-15.59 16.44-43.17 34.81-69.91 34.81-30.5 0-55.29-20.85-71.54-37.03-1.49-0.03-2.99-0.08-4.5-0.18l-29.78 16.66c0.25 1.27 0.44 2.55 0.59 3.83 0.09 0.42 0.19 0.89 0.27 1.29 1.14 5.32 2.86 13.35 2.86 21.93 0 49.33-35.68 88.77-83.16 94.42-0.25 0.62-0.52 1.23-0.79 1.84-0.88 5.33-2.04 16.42-2.04 26.95 0 10.16 2.25 21.73 3.74 28.89 20.67 2.62 39.77 11.96 54.72 26.95 17.81 17.86 27.84 42.55 27.54 67.78-0.04 10.68-2 20.49-3.52 26.51l37.64 19.8c0.8-0.63 1.61-1.23 2.45-1.8 1.03-0.71 2.71-1.94 4.48-3.23 14.4-10.56 36.16-26.52 61.53-26.52 30.09-0.01 57.1 22.95 68.42 34.07M791.69 385.28h-15.42c-9.06 0-21.59-2.87-27.84-12.49-6.25-6.28-24.54-21.67-36.98-21.67-12.52 0-30.81 15.39-39.96 21.67-6.19 6.23-15.37 12.49-27.86 12.49-6.2 0-9.09 0-12.5-2.87l-58.6-30.8c-12.53-9.16-18.32-27.9-12.53-43.29 0 0 2.86-9.18 2.86-18.31a48.38 48.38 0 0 0-14.11-34.93 48.25 48.25 0 0 0-34.17-14.19H510.95c-12.5 0-24.51-12.54-27.87-27.9 0-2.9-6.22-24.54-6.22-46.24 0-18.31 2.87-43.32 6.22-46.11 2.92-15.47 15.34-27.98 27.87-27.98h2.95c27.87 0 48.96-21.67 48.96-49.11 0-6.2-2.86-15.36-2.86-18.2-6.2-15.47 0-33.64 12.53-43.32l55.21-30.88c6.3 2.9 9.2 2.9 15.39 2.9 9.15 0 21.64 2.87 27.95 12.57 6.2 6.23 24.48 24.43 39.88 24.43 12.5 0 33.57-15.36 39.87-24.43 6.22-6.28 15.39-12.57 27.89-12.57 6.19 0 9.12 0 15.33 2.87l55.24 30.83c12.5 9.13 18.32 27.87 12.5 43.37 0 0-2.84 9.08-2.84 18.23 0 27.93 21.64 49.11 49.05 49.11h2.86c12.47 0 24.51 12.54 27.84 27.9 0 0 6.22 24.51 6.22 46.24-5.73 15.39-8.58 39.93-8.58 43.26-2.95 15.44-15.45 27.93-27.89 27.93h-2.92c-27.81 0-48.96 21.67-48.96 49.08 0 6.26 2.87 15.44 2.87 18.29 6.19 15.39 0 33.73-12.53 43.32l-55.22 30.8zM709.3 212.79c2.86 0 5.79-0.32 8.71-0.94 0.41-0.09 0.82-0.17 1.24-0.25 17.34-3.17 30.94-17.61 33.83-35.95 0.12-0.74 0.25-1.47 0.41-2.2 3.54-16.63-3.64-28.63-8.23-34.3-7.95-9.82-19.49-15.45-31.66-15.45-2.9 0-5.86 0.32-8.8 0.95-0.42 0.09-0.84 0.17-1.26 0.25-16.58 3.03-30.88 17.41-34 34.18l-0.12 0.64c-3.83 18.92 3.9 31.89 8.85 37.95 7.84 9.62 19.15 15.12 31.03 15.12m0 42c-51.06 0-92.28-48.01-81.06-103.4 6.28-33.67 33.68-61.58 67.74-67.8a83.707 83.707 0 0 1 17.61-1.89c51.05 0 92.2 47.72 80.97 100.49-5.76 36.57-33.65 64.5-67.77 70.73a83.284 83.284 0 0 1-17.49 1.87z"  horiz-adv-x="1024" />

    
    <glyph glyph-name="xiangxiala" unicode="&#58900;" d="M892.62 629.77c55 0 68.7-32.33 30.44-71.85L586.3 210.07c-38.26-39.52-101.17-39.83-139.82-0.69L101.64 558.62c-38.64 39.14-25.26 71.16 29.74 71.16h761.24z"  horiz-adv-x="1024" />

    
    <glyph glyph-name="exceldaorudaochu" unicode="&#58901;" d="M79.5 598.5v-425.93c0-14.78 12.58-25.85 26.42-25.85h435.34c15.1 0 26.42 12.31 26.42 25.85V598.5c0 14.77-12.58 25.85-26.42 25.85H105.92c-15.09 0-26.42-11.08-26.42-25.85z m351.04-332.38h-91.85l-27.68 52.93-33.97-52.93h-61.65l67.94 105.87-67.94 132.95h91.85l27.68-52.93 33.97 52.93h61.65L362.6 399.07l67.94-132.95z m503.28 477.64v-750.92c0-14.78-12.58-25.85-26.42-25.85H227.97c-15.1 0-26.42 12.31-26.42 25.85v97.25c0 14.77 12.58 25.85 26.42 25.85h7.55c15.1 0 26.42-12.31 26.42-25.85v-36.93c0-14.77 12.58-25.85 26.42-25.85h557.39c15.1 0 26.42 12.31 26.42 25.85V717.91c0 14.78-12.58 25.85-26.42 25.85H289.62c-15.1 0-26.42-12.31-26.42-25.85v-36.93c0-14.77-12.58-25.85-26.42-25.85h-7.55c-15.1 0-26.42 12.31-26.42 25.85v97.25c0 14.77 12.58 25.85 26.42 25.85h679.43c15.1 0 26.42-12.31 26.42-25.85v-34.47h-1.26zM625.56 445.85h159.79c15.1 0 26.42-12.31 26.42-25.85v-7.39c0-14.77-12.58-25.85-26.42-25.85H625.56c-15.1 0-26.42 12.31-26.42 25.85V420c-1.26 13.54 11.32 25.85 26.42 25.85z m0 119.41h159.79c15.1 0 26.42-12.31 26.42-25.85v-7.38c0-14.77-12.58-25.85-26.42-25.85H625.56c-15.1 0-26.42 12.31-26.42 25.85v7.38c-1.26 13.54 11.32 25.85 26.42 25.85z m0-238.82h159.79c15.1 0 26.42-12.31 26.42-25.85v-7.39c0-14.77-12.58-25.85-26.42-25.85H625.56c-15.1 0-26.42 12.31-26.42 25.85v6.16c-1.26 14.77 11.32 27.08 26.42 27.08z m0 0"  horiz-adv-x="1024" />

    
    <glyph glyph-name="xiangxiajiantou" unicode="&#58902;" d="M480.19 156.41l-67.16 67.16L92.17 544.43c-19.45 19.45-21.04 49.67-3.55 67.16s47.72 15.9 67.16-3.55l320.86-320.86c19.45-19.45 51.27-19.45 70.71 0l320.86 320.86c19.45 19.45 49.67 21.04 67.16 3.55s15.9-47.72-3.55-67.16L610.97 223.57l-67.16-67.16c-17.49-17.49-46.12-17.5-63.62 0z"  horiz-adv-x="1024" />

    
    <glyph glyph-name="shouye" unicode="&#58903;" d="M508.23 766c13.5 0 23.07-7.41 28.72-13.62 0.65-0.72 1.32-1.41 2.01-2.09l345.26-339.65c6.36-7.31 8.78-12.76 9.52-15.64h-61.9c-28.72 0-52-23.28-52-52v-289.33c0-23.41-21.8-51.68-48.86-51.68h-79.45V136.15c0 47.38-34.1 114.11-109.92 114.11h-57.93c-62.67 0-109.92-49.06-109.92-114.11V2h-81.77c-26.56 0-47.17 27.78-47.17 51.68V343.01c0 28.72-23.28 52-52 52h-61.5c0.79 2.98 3.27 8.45 9.65 15.71l337.01 340.04c0.58 0.58 1.14 1.18 1.69 1.79 7.93 8.8 17.81 13.45 28.56 13.45m0 52c-25.49 0-49.43-10.93-67.19-30.64l-337.97-341c-32.59-36.11-23.33-64.42-21.32-69.56 5.41-13.09 18.84-33.79 46.65-33.79h64.41v-289.33c0-52.34 43.25-103.68 99.17-103.68h133.77V136.15c0 32.63 19.92 62.11 57.92 62.11h57.93c43.87 0 57.92-41.9 57.92-62.11V-50h131.45c55.76 0 100.86 51.34 100.86 103.68V343.01h64.57c27.8 0 41.09 20.7 46.65 33.79 2.32 5.3 11.43 33.45-21.01 69.56-0.15 0-0.15 0.17-0.15 0.17L575.42 787.36C557.5 807.07 533.72 818 508.23 818z"  horiz-adv-x="1024" />

    
    <glyph glyph-name="xitongshezhi" unicode="&#58904;" d="M515 502.53c64.12 0 116.29-53.17 116.29-118.53S579.12 265.47 515 265.47 398.71 318.64 398.71 384 450.88 502.53 515 502.53m0 52c-92.85 0-168.29-76.44-168.29-170.53 0-94.08 75.44-170.53 168.29-170.53S683.29 289.92 683.29 384c0 94.09-75.44 170.53-168.29 170.53zM645.8 765.81c2.22 0 4.35-0.35 6.35-1.04 37.78-16.02 73.62-37.54 106.6-63.99 9.52-9.79 12.52-25.6 7.07-38.21-0.45-1.04-0.86-2.1-1.25-3.17-14.24-39.99-11.99-82.12 6.19-115.61 19.37-35.69 56.53-61.17 96.98-66.49 0.86-0.11 1.72-0.2 2.59-0.27 6.02-0.49 10.75-2.5 14.44-6.15 3.97-3.93 6.7-9.65 7.93-16.58 2.77-23.47 5.3-48 5.3-69.09 0-21-2.55-42.86-5.3-65.98-2.26-12.31-11.72-21.85-22.73-22.82-0.5-0.04-0.99-0.09-1.49-0.15-41.79-4.89-77.4-29.15-97.72-66.58-20.29-37.39-22.02-81.89-4.71-119.31 5.39-13.21 1.34-30.62-5.75-36.42-0.46-0.37-0.91-0.76-1.35-1.15-27.19-23.86-64.09-46-106.78-64.08-2.01-0.69-4.16-1.04-6.41-1.04-8.85 0-18.48 5.32-25.34 13.95-24.05 34.43-62.4 54.92-102.96 54.92-43.6 0-82.57-20.57-106.9-56.43a51.636 51.636 0 0 1-4.88-8.98c-2.8-6.64-9.28-7.77-12.21-7.93-1.79 0.4-5.31 1.6-8.22 2.62-37.62 16-73.33 37.46-106.19 63.81-9.52 9.78-12.51 25.6-7.07 38.21 0.45 1.04 0.86 2.1 1.24 3.16 14.24 39.99 11.99 82.13-6.19 115.6-19.37 35.69-56.53 61.17-96.99 66.49-0.86 0.11-1.72 0.2-2.58 0.27-6.02 0.49-10.75 2.5-14.44 6.15-4.12 4.08-6.91 10.09-8.07 17.39-0.5 3.17-1.3 6.29-2.37 9.31-5.62 15.79-8.6 36.18-8.6 58.97 0 21.03 2.55 42.88 5.3 65.99 2.26 12.31 11.71 21.85 22.73 22.82 0.5 0.04 0.99 0.09 1.49 0.15 41.79 4.89 77.41 29.15 97.73 66.58 20.12 37.09 21.99 81.18 5.12 118.42-5.75 15.62-2.54 31.05 8.5 40.58 33.33 26.92 69.62 48.79 107.89 65.03 2 0.69 4.15 1.04 6.4 1.04 8.84 0 18.47-5.32 25.33-13.94 24.05-34.43 62.4-54.93 102.96-54.93 43.61 0 82.57 20.57 106.9 56.43 0.09 0.13 0.18 0.27 0.27 0.4 4.95 7.44 13.06 12.05 21.19 12.05m0 52c-24.76 0-49.41-12.58-64.48-35.25-14.52-21.4-37.74-33.62-63.87-33.62-23.22 0-46.45 12.22-60.97 33.62-17.22 22.67-42.43 35.25-67.33 35.25-8.68 0-17.31-1.53-25.56-4.69-43.54-18.34-84.19-42.79-121.93-73.35-29.03-24.45-37.74-64.19-23.23-100.87 11.61-24.45 8.71-51.96-2.9-73.36-11.61-21.39-31.93-36.68-58.06-39.73-34.83-3.06-63.87-30.57-69.67-67.24-2.9-24.45-5.8-48.9-5.8-73.36 0-24.45 2.9-51.96 11.61-76.41 5.81-36.68 31.93-64.19 69.67-67.24 23.22-3.05 46.45-18.34 58.06-39.74 11.61-21.39 11.61-48.9 2.91-73.35-14.52-33.62-5.81-73.36 20.32-97.81 37.74-30.56 78.38-55.02 121.93-73.35 8.71-3.06 17.42-6.11 26.13-6.11 23.22 0 49.35 12.22 60.96 39.74 14.52 21.39 37.74 33.62 63.87 33.62 23.22 0 46.45-12.23 60.97-33.62 17.22-22.67 42.43-35.25 67.33-35.25 8.68 0 17.31 1.53 25.56 4.68 43.54 18.34 87.09 42.79 121.93 73.36 26.13 21.39 34.84 64.18 20.32 97.81-11.61 24.45-8.71 51.96 2.9 73.36 11.61 21.39 31.93 36.68 58.06 39.73 34.84 3.06 63.87 30.57 69.67 67.24 2.9 24.45 5.81 48.91 5.81 73.36 0 24.45-2.91 51.96-5.81 76.41-5.81 36.68-31.93 64.19-69.67 67.24-23.23 3.06-46.44 18.34-58.06 39.74-11.61 21.39-11.61 48.9-2.9 73.35 14.52 33.62 5.8 73.36-20.32 97.81-37.74 30.56-78.38 55.02-121.93 73.35a71.527 71.527 0 0 1-25.52 4.68z"  horiz-adv-x="1024" />

    
    <glyph glyph-name="xiaoxi" unicode="&#58905;" d="M591.93 740.45c0 42.41-35.94 76.95-80.28 76.95-44.25 0-80.28-34.45-80.28-76.95 0-4.33 0.38-8.58 1.09-12.71-110.86-37.04-201.8-150.77-201.8-285.34v-105.94s0-152.58-39.1-153.9c-23.32 0-41.17-17.23-41.17-38.48 0-21.39 17.97-38.47 40.13-38.47h642.26c22.27 0 40.13 17.23 40.13 38.47 0 21.4-17.97 38.48-40.13 38.48-40.15 0-40.15 152.83-40.15 152.83v107c0 134.74-85.03 248.52-201.78 285.44 0.72 4.16 1.08 8.39 1.08 12.62z m40.14-673.26c-0.12-63.81-53.53-115.5-120.42-115.5-66.43 0-120.3 51.47-120.42 115.5h240.84z m0 0"  horiz-adv-x="1024" />

    
    <glyph glyph-name="quanping" unicode="&#58906;" d="M279.12 816.64H105.97C91.63 816.64 80 805.01 80 790.67v-172.99c0-14.41 11.63-26.03 25.97-26.03 14.35 0 26.09 11.62 26.09 26.03 0 1.49-0.25 3.03-0.5 4.45V760.5c0 2.41 1.92 4.33 4.27 4.33h140.5c0.93-0.06 1.86-0.25 2.78-0.25 14.35 0 26.03 11.62 26.03 26.03 0.02 14.4-11.67 26.03-26.02 26.03z m0 0M837.1 75.97c0-9.52-7.85-17.25-17.32-17.25H202.26c-9.53 0-17.25 7.73-17.25 17.25V693.29c0 9.59 7.73 17.31 17.25 17.31h617.53c9.46 0 17.32-7.73 17.32-17.31v-617.32z m0 0M746.51 816.64h173.16c14.34 0 25.97-11.62 25.97-25.97v-172.62c0-0.13 0.12-0.25 0.12-0.37 0-14.41-11.69-26.03-26.1-26.03-14.41 0-26.04 11.62-26.04 26.03 0 1.49 0.25 3.03 0.43 4.45V760.5c0 2.41-1.85 4.33-4.33 4.33H749.29c-0.99-0.06-1.79-0.25-2.78-0.25-14.34 0-25.97 11.62-25.97 26.03 0 14.4 11.63 26.03 25.97 26.03zM279.12-48.79H105.97c-14.35 0-25.97 11.56-25.97 25.9V150.16c0 14.41 11.63 26.09 25.97 26.09 14.35 0 26.09-11.63 26.09-26.09 0-1.48-0.25-3.03-0.5-4.45v-138.3c0-2.41 1.92-4.33 4.27-4.33h140.5c0.93 0.06 1.79 0.25 2.72 0.25 14.35 0 26.03-11.62 26.03-26.03 0.02-14.41-11.61-26.09-25.96-26.09z m467.39 0h173.16c14.34 0 25.97 11.63 25.97 25.9V149.79c0 0.12 0.12 0.25 0.12 0.37 0 14.41-11.69 26.09-26.1 26.09-14.41 0-26.04-11.63-26.04-26.09 0-1.48 0.25-3.03 0.43-4.45v-138.3c0-2.41-1.85-4.33-4.33-4.33H749.29c-0.99 0.06-1.79 0.25-2.78 0.25-14.34 0-25.97-11.62-25.97-26.03 0-14.41 11.63-26.09 25.97-26.09z m0 0"  horiz-adv-x="1024" />

    
    <glyph glyph-name="zujian" unicode="&#58907;" d="M594.69 766c18.76 0 36.38-7.22 49.6-20.34 12.97-12.86 20.11-29.74 20.11-47.51 0-5.28-1.12-11.69-3.41-19.55-0.47-1.18-0.96-2.51-1.43-3.99-1.54-3.77-3.12-7.53-4.29-9.83-0.54-1.07-1.05-2.15-1.51-3.25L647.62 647a51.992 51.992 0 0 1 4.54-48.99 51.993 51.993 0 0 1 43.35-23.28H898v-216.67l-20.4 8.88c-1.43 0.8-2.9 1.53-4.39 2.19-3.46 1.91-8.68 4.66-15.2 6.79-2.11 0.69-4.26 1.25-6.43 1.66-12.06 3.35-22.64 3.34-29.44 3.34-61.89 0-112.25-49.94-112.25-111.32 0-61.38 50.35-111.32 112.25-111.32 8.93 0 18.33 1.21 28.69 3.69 11.84 2.57 20.52 7.44 25.79 10.4 0.6 0.34 1.41 0.79 1.74 0.96 1.92 0.95 3.77 2.01 5.55 3.18 0.26 0.15 0.53 0.31 0.81 0.48l13.29 6.2V2H315.96V164.28a52 52 0 0 1-52 52c-9.96 0-19.9-2.86-28.53-8.53-1.76-1.16-4.15-2.29-6.82-3.25-2.26-0.42-4.49-0.99-6.69-1.71-2.56-0.84-8.33-2.25-18.21-2.25-18.76 0-36.38 7.22-49.61 20.33-12.96 12.87-20.1 29.74-20.1 47.52 0 17.96 7.22 34.9 20.32 47.71 13.28 12.98 30.82 20.14 49.4 20.14 5.63 0 12.39-1.14 20.63-3.48 1.17-0.46 2.5-0.93 3.98-1.38 3.92-1.55 7.84-3.15 10.24-4.33l2.46-1.21a52.002 52.002 0 0 1 50.42 2.53 52.003 52.003 0 0 1 24.51 44.14v201H495.1c18.08 0 34.86 9.39 44.31 24.79a51.999 51.999 0 0 1 2.06 50.74l-3.69 7.26c-0.76 1.49-1.58 2.94-2.48 4.35-3 4.72-4.96 8.46-6.03 11.54-0.46 2.96-1.17 5.89-2.14 8.74-1.38 4.08-2.18 10.36-2.18 17.22 0 17.96 7.22 34.9 20.32 47.71 13.29 12.99 30.84 20.14 49.42 20.14m0 52c-66.39 0-121.72-53.26-121.72-119.85 0-10.89 1.23-23 4.92-33.9v-1.21c2.46-10.9 7.37-20.58 13.52-30.26l3.69-7.26H294.7c-17.21 0-30.74-13.32-30.74-30.27V372.5l-2.46 1.21c-4.92 2.42-11.06 4.84-17.21 7.26-1.23 0-2.46 1.21-3.69 1.21-12.3 3.63-24.59 6.05-36.88 6.05C137.33 388.24 82 334.97 82 268.39c0-65.37 54.09-119.85 121.72-119.85 11.06 0 23.36 1.21 34.43 4.84h1.23c8.61 2.42 17.21 6.05 24.59 10.89v-184.01c0-16.94 13.52-30.27 30.74-30.27h624.56c17.21 0 30.74 13.32 30.74 30.27V217.55c0 9.68-6.15 20.58-14.75 25.42-4.83 2.72-10.44 4.3-16.17 4.3-4.47 0-9.02-0.96-13.34-3.08l-46.72-21.79c-1.23-1.21-2.46-1.21-3.69-2.42-4.92-2.42-9.83-6.05-15.98-7.26-4.92-1.21-11.06-2.42-17.21-2.42-33.19 0-60.25 26.63-60.25 59.32 0 32.68 27.05 59.32 60.25 59.32 6.15 0 12.29 0 18.44-2.42h1.23c3.69-1.21 7.37-3.63 9.83-4.84 1.23 0 1.23-1.21 2.46-1.21l52.87-23c4.29-1.59 8.82-2.48 13.27-2.48 5.75 0 11.38 1.49 16.23 4.9 8.61 6.05 13.52 15.73 13.52 25.42V596.46c0 16.94-13.52 30.27-30.74 30.27H695.5l6.15 14.53c2.46 4.84 4.92 10.89 7.37 16.95 0 1.21 1.23 2.42 1.23 3.63 3.69 12.11 6.15 24.21 6.15 36.32C716.4 763.52 662.31 818 594.69 818z"  horiz-adv-x="1024" />

    
    <glyph glyph-name="news" unicode="&#58910;" d="M804.38 239.45V429.61c0 128.31-81.94 234.98-194.79 273.63 0 3.09 1.55 9.28 1.55 12.37 0 54.11-44.83 97.39-97.39 97.39-54.11 0-97.39-43.29-97.39-97.39 0-3.09 0-9.28 1.55-12.37-112.85-38.65-196.34-145.32-196.34-273.63v-190.15l-68.02-119.04c-6.18-10.82-6.18-26.28 0-37.1 7.73-10.82 18.55-18.55 30.92-18.55h154.59C363.78-3.26 431.8-45 512.19-45c81.94 0 149.96 40.19 173.15 109.76h153.05c12.37 0 24.74 7.73 30.92 18.55 7.73 10.82 7.73 26.28 0 37.1l-64.93 119.04z m-344.75 477.7c0 30.92 23.19 49.47 54.11 49.47s52.56-18.55 52.56-49.47v-1.55c-18.55 3.09-34.01 4.64-52.56 4.64-20.1 1.55-38.65-1.55-57.2-3.09h3.09z m54.11-704.95c-40.19 0-83.48 21.64-109.76 55.65h216.43c-23.19-32.46-66.48-55.65-106.67-55.65zM216.92 118.87l57.2 97.39c1.55 4.64 1.55 13.91 1.55 20.1V435.79c0 120.58 114.4 230.35 233.44 230.35 120.58 0 244.26-117.49 244.26-238.08v-199.43c0-7.73 1.55-17.01 3.09-20.1l43.29-89.66H216.92z"  horiz-adv-x="1024" />

    
    <glyph glyph-name="dingshirenwu" unicode="&#58914;" d="M360.16 634.2c-16.28 0-29.6 13.32-29.6 29.6V782.23c0 16.28 13.32 29.6 29.6 29.6s29.6-13.32 29.6-29.6v-118.42c0-16.28-13.32-29.61-29.6-29.61zM663.84 634.2c-16.28 0-29.6 13.32-29.6 29.6V782.23c0 16.28 13.32 29.6 29.6 29.6s29.6-13.32 29.6-29.6v-118.42c0.01-16.28-13.32-29.61-29.6-29.61zM837.65-43.83h-651.3c-42.65 0-77.35 34.7-77.35 77.35V668.46c0 42.65 34.7 77.35 77.35 77.35h651.29c42.65 0 77.35-34.7 77.35-77.35v-634.94c0.01-42.65-34.69-77.35-77.34-77.35z m-651.3 730.44c-9.84 0-18.14-8.31-18.14-18.14v-634.94c0-9.84 8.31-18.14 18.14-18.14h651.29c9.84 0 18.14 8.31 18.14 18.14V668.46c0 9.84-8.31 18.14-18.14 18.14H186.35zM879.5 526.61H147.37c-13.75 0-25 11.25-25 25v9.21c0 13.75 11.25 25 25 25H879.5c13.75 0 25-11.25 25-25v-9.21c0-13.75-11.25-25-25-25zM511.5 62.37c-55.69 0-108.05 21.69-147.43 61.07C324.69 162.82 303 215.18 303 270.87c0 55.69 21.69 108.05 61.07 147.43s91.74 61.07 147.43 61.07 108.05-21.69 147.43-61.07S720 326.56 720 270.87c0-55.69-21.69-108.05-61.07-147.43-39.38-39.38-91.74-61.07-147.43-61.07z m0 371.97c-90.14 0-163.47-73.33-163.47-163.47S421.36 107.4 511.5 107.4s163.47 73.33 163.47 163.47-73.33 163.47-163.47 163.47zM507.45 246.1c-12.38 0-22.52 10.13-22.52 22.52v93.67c0 12.38 10.13 22.52 22.52 22.52 12.38 0 22.52-10.13 22.52-22.52v-93.67c-0.01-12.39-10.14-22.52-22.52-22.52zM565.99 246.1h-58.54c-12.38 0-22.52 10.13-22.52 22.52 0 12.38 10.13 22.52 22.52 22.52h58.54c12.38 0 22.52-10.13 22.52-22.52 0-12.39-10.14-22.52-22.52-22.52z"  horiz-adv-x="1024" />

    
    <glyph glyph-name="dongtaijiazai" unicode="&#58915;" d="M846.54-16.13H177.46c-43.82 0-79.46 35.17-79.46 78.39V705.74c0 43.23 35.65 78.39 79.46 78.39h669.07c43.82 0 79.46-35.17 79.46-78.39v-643.47c0.01-43.23-35.64-78.4-79.45-78.4zM177.46 724.12c-10.1 0-18.64-8.42-18.64-18.39v-643.47c0-9.97 8.54-18.39 18.64-18.39h669.07c10.1 0 18.64 8.42 18.64 18.39V705.74c0 9.97-8.54 18.39-18.64 18.39H177.46zM854.82 582.9H169.18c-13.75 0-25 11.25-25 25v9.21c0 13.75 11.25 25 25 25h685.63c13.75 0 25-11.25 25-25v-9.21c0.01-13.75-11.24-25-24.99-25zM854.82 125.9H169.18c-13.75 0-25 11.25-25 25v9.21c0 13.75 11.25 25 25 25h685.63c13.75 0 25-11.25 25-25v-9.21c0.01-13.75-11.24-25-24.99-25zM674 266.5h-85c-41.36 0-75 33.64-75 75v85c0 41.36 33.64 75 75 75h85c41.36 0 75-33.64 75-75v-85c0-41.36-33.64-75-75-75z m-85 185c-13.79 0-25-11.21-25-25v-85c0-13.79 11.21-25 25-25h85c13.79 0 25 11.21 25 25v85c0 13.79-11.21 25-25 25h-85zM314.5 334.5c-14.03 0-25.5 11.47-25.5 25.5V486c0 14.02 11.47 25.5 25.5 25.5 14.02 0 25.5-11.47 25.5-25.5v-126c0-14.03-11.48-25.5-25.5-25.5zM314.5 282m-25.5 0a25.5 25.5 0 1 1 51 0 25.5 25.5 0 1 1-51 0Z"  horiz-adv-x="1024" />

    
    <glyph glyph-name="jiekouwendang" unicode="&#58916;" d="M804.79-25.58H219.21c-40.87 0-74.12 33.25-74.12 74.12v670.6c0 40.87 33.25 74.12 74.12 74.12h392.33v-55.59H219.21c-10.04 0-18.53-8.49-18.53-18.53v-670.59c0-10.04 8.49-18.53 18.53-18.53h585.58c10.04 0 18.53 8.49 18.53 18.53V538.36h55.59v-489.82c0-40.87-33.25-74.12-74.12-74.12zM850.71 510.89H657.47c-40.87 0-74.12 33.25-74.12 74.12V765.78c0 11.11 6.61 21.15 16.82 25.54a27.791 27.791 0 0 0 30.1-5.36l239.57-227.1a27.805 27.805 0 0 0 6.7-30.47 27.81 27.81 0 0 0-25.83-17.5zM638.94 701.14v-116.12c0-10.04 8.49-18.53 18.53-18.53h123.52L638.94 701.14zM457.69 408L332.54 282.85c-9.2-9.2-24.26-9.2-33.46 0s-9.2 24.26 0 33.46l125.15 125.15c9.2 9.2 24.26 9.2 33.46 0s9.2-24.26 0-33.46zM332.54 316.31l125.15-125.15c9.2-9.2 9.2-24.26 0-33.46s-24.26-9.2-33.46 0L299.08 282.85c-9.2 9.2-9.2 24.26 0 33.46s24.26 9.2 33.46 0zM565.44 408l125.15-125.15c9.2-9.2 24.26-9.2 33.46 0s9.2 24.26 0 33.46L598.9 441.46c-9.2 9.2-24.26 9.2-33.46 0s-9.2-24.26 0-33.46zM690.59 316.31L565.44 191.16c-9.2-9.2-9.2-24.26 0-33.46s24.26-9.2 33.46 0l125.15 125.15c9.2 9.2 9.2 24.26 0 33.46s-24.26 9.2-33.46 0z"  horiz-adv-x="1024" />

    


  </font>
</defs>
</svg>
